<?xml version="1.0" standalone="no"?>
<!DOCTYPE svg PUBLIC "-//W3C//DTD SVG 1.1//EN" "http://www.w3.org/Graphics/SVG/1.1/DTD/svg11.dtd" >
<svg xmlns="http://www.w3.org/2000/svg" xmlns:xlink="http://www.w3.org/1999/xlink" version="1.1">
<metadata>
Created by FontForge 20170731 at Mon Apr 22 21:00:38 2019
 By Aleksey,,,
KevinAlberts
</metadata>
<defs>
<font id="shortwide" horiz-adv-x="704" >
  <font-face 
    font-family="shortwide"
    font-weight="500"
    font-stretch="normal"
    units-per-em="1024"
    panose-1="2 0 6 3 0 0 0 0 0 0"
    ascent="768"
    descent="-256"
    x-height="384"
    cap-height="384"
    bbox="0 0 704 682"
    underline-thickness="51"
    underline-position="-203"
    unicode-range="U+0020-00A0"
  />
<missing-glyph horiz-adv-x="374" 
d="M34 0v682h272v-682h-272zM68 34h204v614h-204v-614z" />
    <glyph glyph-name=".notdef" horiz-adv-x="374" 
d="M34 0v682h272v-682h-272zM68 34h204v614h-204v-614z" />
    <glyph glyph-name=".null" horiz-adv-x="0" 
 />
    <glyph glyph-name="nonmarkingreturn" horiz-adv-x="341" 
 />
    <glyph glyph-name="space" unicode=" " horiz-adv-x="320" 
 />
    <glyph glyph-name="exclam" unicode="!" horiz-adv-x="448" 
d="M320 128h64v-64h-64h-64v64h64zM320 192h-64v64v64v64h64h64v-64v-64v-64h-64z" />
    <glyph glyph-name="quotedbl" unicode="&#x22;" 
d="M448 320h64v-64h-64h-64v64h64zM192 320h64v-64h-64h-64v64h64zM512 320v64v64h64h64v-64v-64h-64h-64zM384 320h-64h-64v64v64h64h64v-64v-64z" />
    <glyph glyph-name="numbersign" unicode="#" 
d="M448 64h-64v64h-64h-64v-64h-64h-64v64h-64h-64v64h64h64v64h-64h-64v64h64h64v64h64h64v-64h64h64v64h64h64v-64h64h64v-64h-64h-64v-64h64h64v-64h-64h-64v-64h-64zM320 192h64v64h-64h-64v-64h64z" />
    <glyph glyph-name="dollar" unicode="$" 
d="M320 0h-64v64h-64h-64h-64h-64v64h64h64h64h64v64h-64h-64v64h-64h-64v64h64h64v64h64h64v64h64h64v-64h64h64h64h64v-64h-64h-64h-64h-64v-64h64h64v-64h64h64v-64h-64h-64v64h-64h-64v-64h64h64v-64h-64h-64v-64h-64zM192 256h64v64h-64h-64v-64h64z" />
    <glyph glyph-name="percent" unicode="%" 
d="M576 64h-64h-64h-64v64v64h64h64h64h64v-64v-64h-64zM64 128h64v-64h-64h-64v64h64zM192 192h64v-64h-64h-64v64h64zM384 192h-64h-64v64h64h64v-64zM448 320h64v-64h-64h-64v64h64zM256 256h-64h-64h-64h-64v64v64h64h64h64h64v-64v-64zM576 384h64v-64h-64h-64v64h64z
" />
    <glyph glyph-name="ampersand" unicode="&#x26;" 
d="M576 128h64v-64h-64h-64v64h64zM320 64h-64h-64h-64v64h64h64v64h64h64h64h64v-64h-64h-64v-64h-64zM128 128h-64h-64v64h64h64v-64zM256 192h-64h-64v64h64h64v-64zM320 320h64v-64h-64h-64v64h64zM128 256h-64h-64v64h64h64v-64zM256 320h-64h-64v64h64h64v-64z" />
    <glyph glyph-name="quotesingle" unicode="'" horiz-adv-x="576" 
d="M320 256h64v-64h-64h-64v64h64zM384 256v64v64h64h64v-64v-64h-64h-64z" />
    <glyph glyph-name="parenleft" unicode="(" horiz-adv-x="576" 
d="M448 128h64v-64h-64h-64h-64h-64v64h64h64h64zM256 128h-64h-64v64h64h64v-64zM128 192h-64h-64v64h64h64v-64zM192 320h64v-64h-64h-64v64h64zM448 384h64v-64h-64h-64h-64h-64v64h64h64h64z" />
    <glyph glyph-name="parenright" unicode=")" horiz-adv-x="576" 
d="M192 128h64v-64h-64h-64h-64h-64v64h64h64h64zM320 192h64v-64h-64h-64v64h64zM448 256h64v-64h-64h-64v64h64zM384 256h-64h-64v64h64h64v-64zM256 320h-64h-64h-64h-64v64h64h64h64h64v-64z" />
    <glyph glyph-name="asterisk" unicode="*" 
d="M576 128h64v-64h-64h-64v64h64zM320 64h-64v64h-64h-64v-64h-64h-64v64h64h64v64h64h64v64h-64h-64v64h64h64v64h64h64v-64h64h64v-64h-64h-64v-64h64h64v-64h-64h-64v-64h-64zM576 384h64v-64h-64h-64v64h64zM128 320h-64h-64v64h64h64v-64z" />
    <glyph glyph-name="plus" unicode="+" 
d="M320 64h-64v64v64h-64h-64h-64h-64v64h64h64h64h64v64v64h64h64v-64v-64h64h64h64h64v-64h-64h-64h-64h-64v-64v-64h-64z" />
    <glyph glyph-name="comma" unicode="," horiz-adv-x="576" 
d="M320 64h64v-64h-64h-64v64h64zM384 64v64v64h64h64v-64v-64h-64h-64z" />
    <glyph glyph-name="hyphen" unicode="-" 
d="M576 256h64v-64h-64h-64h-64h-64h-64h-64h-64h-64v64h64h64h64h64h64h64h64z" />
    <glyph glyph-name="period" unicode="." 
d="M576 0h-64h-64h-64v64v64h64h64h64h64v-64v-64h-64z" />
    <glyph glyph-name="slash" unicode="/" 
d="M64 128h64v-64h-64h-64v64h64zM192 192h64v-64h-64h-64v64h64zM320 256h64v-64h-64h-64v64h64zM448 320h64v-64h-64h-64v64h64zM576 384h64v-64h-64h-64v64h64z" />
    <glyph glyph-name="zero" unicode="0" 
d="M448 128h64v-64h-64h-64h-64h-64h-64h-64v64h-64h-64v64v64v64h64h64v-64v-64h64h64v-64h64h64h64zM512 128v64v64h-64h-64v-64h-64h-64v64h64h64v64h-64h-64h-64h-64v64h64h64h64h64h64h64v-64h64h64v-64v-64v-64h-64h-64z" />
    <glyph glyph-name="one" unicode="1" horiz-adv-x="576" 
d="M448 128h64v-64h-64h-64h-64h-64h-64h-64v64h64h64v64v64h-64h-64v64h64h64v64h64h64v-64v-64v-64v-64h64z" />
    <glyph glyph-name="two" unicode="2" 
d="M576 128h64v-64h-64h-64h-64h-64h-64h-64h-64h-64h-64h-64v64h64h64v64h64h64v-64h64h64h64h64h64zM448 256h64v-64h-64h-64h-64h-64v64h64h64h64zM576 320h64v-64h-64h-64v64h64zM64 320h64v-64h-64h-64v64h64zM512 320h-64h-64h-64h-64h-64h-64v64h64h64h64h64h64h64
v-64z" />
    <glyph glyph-name="three" unicode="3" 
d="M448 128h64v-64h-64h-64h-64h-64h-64h-64h-64h-64v64h64h64h64h64h64h64h64zM576 192h64v-64h-64h-64v64h64zM512 192h-64h-64h-64h-64h-64h-64v64h64h64h64h64h64h64v-64zM576 320h64v-64h-64h-64v64h64zM512 320h-64h-64h-64h-64h-64h-64h-64h-64v64h64h64h64h64h64h64
h64h64v-64z" />
    <glyph glyph-name="four" unicode="4" 
d="M448 64h-64v64h-64h-64h-64h-64h-64h-64v64v64h64h64v64h64h64v64h64h64h64h64v-64v-64v-64h64h64v-64h-64h-64v-64h-64zM320 192h64v64v64h-64h-64v-64h-64h-64v-64h64h64h64z" />
    <glyph glyph-name="five" unicode="5" 
d="M448 128h64v-64h-64h-64h-64h-64h-64h-64h-64h-64v64h64h64h64h64h64h64h64zM576 192h64v-64h-64h-64v64h64zM512 192h-64h-64h-64h-64h-64h-64h-64h-64v64v64v64h64h64h64h64h64h64h64h64h64h64v-64h-64h-64h-64h-64h-64h-64h-64h-64v-64h64h64h64h64h64h64v-64z" />
    <glyph glyph-name="six" unicode="6" 
d="M448 128h64v-64h-64h-64h-64h-64h-64h-64v64h64h64h64h64h64zM576 192h64v-64h-64h-64v64h64zM128 128h-64h-64v64v64v64h64h64v-64h64h64h64h64h64h64v-64h-64h-64h-64h-64h-64h-64v-64zM448 384h64v-64h-64h-64h-64h-64h-64h-64v64h64h64h64h64h64z" />
    <glyph glyph-name="seven" unicode="7" 
d="M320 64h-64v64v64v64h64h64v-64v-64v-64h-64zM384 256v64h-64h-64h-64h-64h-64h-64v64h64h64h64h64h64h64h64h64h64h64v-64h-64h-64v-64h-64h-64z" />
    <glyph glyph-name="eight" unicode="8" 
d="M448 128h64v-64h-64h-64h-64h-64h-64h-64v64h64h64h64h64h64zM576 192h64v-64h-64h-64v64h64zM128 128h-64h-64v64h64h64v-64zM512 192h-64h-64h-64h-64h-64h-64v64h64h64h64h64h64h64v-64zM576 320h64v-64h-64h-64v64h64zM128 256h-64h-64v64h64h64v-64zM512 320h-64
h-64h-64h-64h-64h-64v64h64h64h64h64h64h64v-64z" />
    <glyph glyph-name="nine" unicode="9" 
d="M448 128h64v-64h-64h-64h-64h-64h-64h-64v64h64h64h64h64h64zM512 128v64h-64h-64h-64h-64h-64h-64v64h64h64h64h64h64h64v64h64h64v-64v-64v-64h-64h-64zM128 256h-64h-64v64h64h64v-64zM512 320h-64h-64h-64h-64h-64h-64v64h64h64h64h64h64h64v-64z" />
    <glyph glyph-name="colon" unicode=":" horiz-adv-x="448" 
d="M320 64h-64v64v64h64h64v-64v-64h-64zM320 256h-64v64v64h64h64v-64v-64h-64z" />
    <glyph glyph-name="semicolon" unicode=";" horiz-adv-x="448" 
d="M192 128h64v-64h-64h-64v64h64zM256 128v64v64h64h64v-64v-64h-64h-64zM320 384h64v-64h-64h-64v64h64z" />
    <glyph glyph-name="less" unicode="&#x3c;" horiz-adv-x="576" 
d="M448 128h64v-64h-64h-64v64h64zM384 128h-64h-64v64h64h64v-64zM256 192h-64h-64v64h64h64v-64zM320 320h64v-64h-64h-64v64h64zM448 384h64v-64h-64h-64v64h64z" />
    <glyph glyph-name="equal" unicode="=" 
d="M576 192h64v-64h-64h-64h-64h-64h-64h-64h-64h-64v64h64h64h64h64h64h64h64zM576 320h64v-64h-64h-64h-64h-64h-64h-64h-64h-64v64h64h64h64h64h64h64h64z" />
    <glyph glyph-name="greater" unicode="&#x3e;" horiz-adv-x="576" 
d="M192 128h64v-64h-64h-64v64h64zM320 192h64v-64h-64h-64v64h64zM448 256h64v-64h-64h-64v64h64zM384 256h-64h-64v64h64h64v-64zM256 320h-64h-64v64h64h64v-64z" />
    <glyph glyph-name="question" unicode="?" 
d="M320 128h64v-64h-64h-64v64h64zM448 256h64v-64h-64h-64h-64h-64v64h64h64h64zM576 320h64v-64h-64h-64v64h64zM64 320h64v-64h-64h-64v64h64zM512 320h-64h-64h-64h-64h-64h-64v64h64h64h64h64h64h64v-64z" />
    <glyph glyph-name="at" unicode="@" 
d="M576 128h64v-64h-64h-64h-64h-64h-64h-64h-64h-64v64h64h64h64h64h64h64h64zM128 128h-64h-64v64v64v64h64h64v-64v-64v-64zM576 192h-64h-64h-64h-64h-64v64v64h-64h-64v64h64h64h64h64h64h64v-64h-64h-64v-64h64h64v64h64h64v-64v-64h-64z" />
    <glyph glyph-name="A" unicode="A" 
d="M576 64h-64v64v64h-64h-64h-64h-64h-64h-64v-64v-64h-64h-64v64v64v64v64h64h64v-64h64h64h64h64h64h64v64h64h64v-64v-64v-64v-64h-64zM512 320h-64h-64h-64h-64h-64h-64v64h64h64h64h64h64h64v-64z" />
    <glyph glyph-name="B" unicode="B" 
d="M448 128h64v64h-64h-64h-64h-64h-64h-64v-64h64h64h64h64h64zM448 64h-64h-64h-64h-64h-64h-64h-64v64v64v64v64v64h64h64h64h64h64h64h64h64v-64h64h64v-64h-64h-64v64h-64h-64h-64h-64h-64h-64v-64h64h64h64h64h64h64v-64h64h64v-64h-64h-64v-64h-64z" />
    <glyph glyph-name="C" unicode="C" 
d="M576 128h64v-64h-64h-64h-64h-64h-64h-64h-64h-64v64h64h64h64h64h64h64h64zM128 128h-64h-64v64v64v64h64h64v-64v-64v-64zM576 384h64v-64h-64h-64h-64h-64h-64h-64h-64h-64v64h64h64h64h64h64h64h64z" />
    <glyph glyph-name="D" unicode="D" 
d="M448 128h64v64v64v64h-64h-64h-64h-64h-64h-64v-64v-64v-64h64h64h64h64h64zM448 64h-64h-64h-64h-64h-64h-64h-64v64v64v64v64v64h64h64h64h64h64h64h64h64v-64h64h64v-64v-64v-64h-64h-64v-64h-64z" />
    <glyph glyph-name="E" unicode="E" 
d="M576 128h64v-64h-64h-64h-64h-64h-64h-64h-64h-64h-64h-64v64v64v64v64v64h64h64h64h64h64h64h64h64h64h64v-64h-64h-64h-64h-64h-64h-64h-64h-64v-64h64h64h64h64h64h64v-64h-64h-64h-64h-64h-64h-64v-64h64h64h64h64h64h64h64z" />
    <glyph glyph-name="F" unicode="F" horiz-adv-x="768" 
d="M64 64h-64v64v64v64v64v64h64h64h64h64h64h64h64h64h64h64h64v-64h-64h-64h-64h-64h-64h-64h-64h-64h-64v-64h64h64h64h64h64h64h64v-64h-64h-64h-64h-64h-64h-64h-64v-64v-64h-64z" />
    <glyph glyph-name="G" unicode="G" 
d="M576 64h-64h-64h-64h-64h-64h-64h-64v64h64h64h64h64h64h64v64h-64h-64v64h64h64h64h64v-64v-64v-64h-64zM128 128h-64h-64v64v64v64h64h64v-64v-64v-64zM576 384h64v-64h-64h-64h-64h-64h-64h-64h-64h-64v64h64h64h64h64h64h64h64z" />
    <glyph glyph-name="H" unicode="H" 
d="M576 64h-64v64v64h-64h-64h-64h-64h-64h-64v-64v-64h-64h-64v64v64v64v64v64h64h64v-64v-64h64h64h64h64h64h64v64v64h64h64v-64v-64v-64v-64v-64h-64z" />
    <glyph glyph-name="I" unicode="I" horiz-adv-x="576" 
d="M448 128h64v-64h-64h-64h-64h-64h-64h-64v64h64h64v64v64v64h-64h-64v64h64h64h64h64h64h64v-64h-64h-64v-64v-64v-64h64z" />
    <glyph glyph-name="J" unicode="J" 
d="M320 128h64v-64h-64h-64h-64h-64v64h64h64h64zM384 128v64v64v64h-64h-64v64h64h64h64h64h64h64v-64h-64h-64v-64v-64v-64h-64h-64zM128 128h-64h-64v64h64h64v-64z" />
    <glyph glyph-name="K" unicode="K" 
d="M576 128h64v-64h-64h-64v64h64zM64 64h-64v64v64v64v64v64h64h64v-64v-64h64h64h64h64v-64h64h64v-64h-64h-64v64h-64h-64h-64h-64v-64v-64h-64zM448 320h64v-64h-64h-64v64h64zM576 384h64v-64h-64h-64v64h64z" />
    <glyph glyph-name="L" unicode="L" 
d="M576 128h64v-64h-64h-64h-64h-64h-64h-64h-64h-64h-64h-64v64v64v64v64v64h64h64v-64v-64v-64v-64h64h64h64h64h64h64h64z" />
    <glyph glyph-name="M" unicode="M" 
d="M576 64h-64v64v64v64h-64h-64v-64h-64h-64v64h64h64v64h64h64v64h64h64v-64v-64v-64v-64v-64h-64zM64 64h-64v64v64v64v64v64h64h64v-64h64h64v-64h-64h-64v-64v-64v-64h-64z" />
    <glyph glyph-name="N" unicode="N" 
d="M576 64h-64v64h-64h-64v64h64h64v64v64v64h64h64v-64v-64v-64v-64v-64h-64zM64 64h-64v64v64v64v64v64h64h64v-64h64h64v-64h64h64v-64h-64h-64v64h-64h-64v-64v-64v-64h-64z" />
    <glyph glyph-name="O" unicode="O" 
d="M448 128h64v-64h-64h-64h-64h-64h-64h-64v64h64h64h64h64h64zM512 128v64v64v64h64h64v-64v-64v-64h-64h-64zM128 128h-64h-64v64v64v64h64h64v-64v-64v-64zM512 320h-64h-64h-64h-64h-64h-64v64h64h64h64h64h64h64v-64z" />
    <glyph glyph-name="P" unicode="P" 
d="M64 64h-64v64v64v64v64v64h64h64h64h64h64h64h64h64v-64h64h64v-64h-64h-64v64h-64h-64h-64h-64h-64h-64v-64h64h64h64h64h64h64v-64h-64h-64h-64h-64h-64h-64v-64v-64h-64z" />
    <glyph glyph-name="Q" unicode="Q" 
d="M448 64h-64h-64h-64h-64h-64v64h64h64h64h64v64h64h64v64v64h64h64v-64v-64v-64h-64h-64v-64h-64zM128 128h-64h-64v64v64v64h64h64v-64v-64v-64zM512 320h-64h-64h-64h-64h-64h-64v64h64h64h64h64h64h64v-64z" />
    <glyph glyph-name="R" unicode="R" 
d="M576 128h64v-64h-64h-64h-64h-64v64h64h64h64zM64 64h-64v64v64v64v64v64h64h64h64h64h64h64h64h64v-64h64h64v-64h-64h-64v64h-64h-64h-64h-64h-64h-64v-64h64h64h64h64h64h64v-64h-64h-64v-64h-64h-64v64h-64h-64v-64v-64h-64z" />
    <glyph glyph-name="S" unicode="S" 
d="M448 128h64v-64h-64h-64h-64h-64h-64h-64h-64h-64v64h64h64h64h64h64h64h64zM576 192h64v-64h-64h-64v64h64zM512 192h-64h-64h-64h-64h-64h-64v64h64h64h64h64h64h64v-64zM128 256h-64h-64v64h64h64v-64zM576 384h64v-64h-64h-64h-64h-64h-64h-64h-64h-64v64h64h64h64
h64h64h64h64z" />
    <glyph glyph-name="T" unicode="T" 
d="M320 64h-64v64v64v64v64h-64h-64h-64h-64v64h64h64h64h64h64h64h64h64h64h64v-64h-64h-64h-64h-64v-64v-64v-64v-64h-64z" />
    <glyph glyph-name="U" unicode="U" 
d="M448 128h64v-64h-64h-64h-64h-64h-64h-64v64h64h64h64h64h64zM512 128v64v64v64v64h64h64v-64v-64v-64v-64h-64h-64zM128 128h-64h-64v64v64v64v64h64h64v-64v-64v-64v-64z" />
    <glyph glyph-name="V" unicode="V" 
d="M320 128h64v-64h-64h-64v64h64zM448 192h64v-64h-64h-64v64h64zM256 128h-64h-64v64h64h64v-64zM512 192v64v64v64h64h64v-64v-64v-64h-64h-64zM128 192h-64h-64v64v64v64h64h64v-64v-64v-64z" />
    <glyph glyph-name="W" unicode="W" 
d="M576 64h-64v64h-64h-64v64h64h64v64v64v64h64h64v-64v-64v-64v-64v-64h-64zM64 64h-64v64v64v64v64v64h64h64v-64v-64v-64h64h64v-64h-64h-64v-64h-64zM384 192h-64h-64v64h64h64v-64z" />
    <glyph glyph-name="X" unicode="X" 
d="M576 128h64v-64h-64h-64v64h64zM64 128h64v-64h-64h-64v64h64zM512 128h-64h-64v64h64h64v-64zM192 192h64v-64h-64h-64v64h64zM384 192h-64h-64v64h64h64v-64zM448 320h64v-64h-64h-64v64h64zM256 256h-64h-64v64h64h64v-64zM576 384h64v-64h-64h-64v64h64zM128 320h-64
h-64v64h64h64v-64z" />
    <glyph glyph-name="Y" unicode="Y" 
d="M320 64h-64v64v64v64h64h64v-64v-64v-64h-64zM448 320h64v-64h-64h-64v64h64zM256 256h-64h-64v64h64h64v-64zM576 384h64v-64h-64h-64v64h64zM128 320h-64h-64v64h64h64v-64z" />
    <glyph glyph-name="Z" unicode="Z" 
d="M576 128h64v-64h-64h-64h-64h-64h-64h-64h-64h-64h-64h-64v64h64h64v64h64h64v-64h64h64h64h64h64zM320 256h64v-64h-64h-64v64h64zM384 256v64h-64h-64h-64h-64h-64h-64v64h64h64h64h64h64h64h64h64h64h64v-64h-64h-64v-64h-64h-64z" />
    <glyph glyph-name="bracketleft" unicode="[" horiz-adv-x="576" 
d="M448 128h64v-64h-64h-64h-64h-64h-64h-64v64v64v64v64v64h64h64h64h64h64h64v-64h-64h-64h-64h-64v-64v-64v-64h64h64h64z" />
    <glyph glyph-name="backslash" unicode="\" 
d="M576 128h64v-64h-64h-64v64h64zM512 128h-64h-64v64h64h64v-64zM384 192h-64h-64v64h64h64v-64zM256 256h-64h-64v64h64h64v-64zM128 320h-64h-64v64h64h64v-64z" />
    <glyph glyph-name="bracketright" unicode="]" horiz-adv-x="576" 
d="M448 64h-64h-64h-64h-64h-64v64h64h64h64h64v64v64v64h-64h-64h-64h-64v64h64h64h64h64h64h64v-64v-64v-64v-64v-64h-64z" />
    <glyph glyph-name="asciicircum" unicode="^" horiz-adv-x="576" 
d="M448 256h64v-64h-64h-64v64h64zM192 256h64v-64h-64h-64v64h64zM384 256h-64h-64v64h64h64v-64z" />
    <glyph glyph-name="underscore" unicode="_" 
d="M576 128h64v-64h-64h-64h-64h-64h-64h-64h-64h-64v64h64h64h64h64h64h64h64z" />
    <glyph glyph-name="grave" unicode="`" horiz-adv-x="576" 
d="M448 256h64v-64h-64h-64v64h64zM384 256h-64h-64v64v64h64h64v-64v-64z" />
    <glyph glyph-name="a" unicode="a" 
d="M576 64h-64v64v64h-64h-64h-64h-64h-64h-64v-64v-64h-64h-64v64v64v64v64h64h64v-64h64h64h64h64h64h64v64h64h64v-64v-64v-64v-64h-64zM512 320h-64h-64h-64h-64h-64h-64v64h64h64h64h64h64h64v-64z" />
    <glyph glyph-name="b" unicode="b" 
d="M448 128h64v64h-64h-64h-64h-64h-64h-64v-64h64h64h64h64h64zM448 64h-64h-64h-64h-64h-64h-64h-64v64v64v64v64v64h64h64h64h64h64h64h64h64v-64h64h64v-64h-64h-64v64h-64h-64h-64h-64h-64h-64v-64h64h64h64h64h64h64v-64h64h64v-64h-64h-64v-64h-64z" />
    <glyph glyph-name="c" unicode="c" 
d="M576 128h64v-64h-64h-64h-64h-64h-64h-64h-64h-64v64h64h64h64h64h64h64h64zM128 128h-64h-64v64v64v64h64h64v-64v-64v-64zM576 384h64v-64h-64h-64h-64h-64h-64h-64h-64h-64v64h64h64h64h64h64h64h64z" />
    <glyph glyph-name="d" unicode="d" 
d="M448 128h64v64v64v64h-64h-64h-64h-64h-64h-64v-64v-64v-64h64h64h64h64h64zM448 64h-64h-64h-64h-64h-64h-64h-64v64v64v64v64v64h64h64h64h64h64h64h64h64v-64h64h64v-64v-64v-64h-64h-64v-64h-64z" />
    <glyph glyph-name="e" unicode="e" 
d="M576 128h64v-64h-64h-64h-64h-64h-64h-64h-64h-64h-64h-64v64v64v64v64v64h64h64h64h64h64h64h64h64h64h64v-64h-64h-64h-64h-64h-64h-64h-64h-64v-64h64h64h64h64h64h64v-64h-64h-64h-64h-64h-64h-64v-64h64h64h64h64h64h64h64z" />
    <glyph glyph-name="f" unicode="f" horiz-adv-x="768" 
d="M64 64h-64v64v64v64v64v64h64h64h64h64h64h64h64h64h64h64h64v-64h-64h-64h-64h-64h-64h-64h-64h-64h-64v-64h64h64h64h64h64h64h64v-64h-64h-64h-64h-64h-64h-64h-64v-64v-64h-64z" />
    <glyph glyph-name="g" unicode="g" 
d="M576 64h-64h-64h-64h-64h-64h-64h-64v64h64h64h64h64h64h64v64h-64h-64v64h64h64h64h64v-64v-64v-64h-64zM128 128h-64h-64v64v64v64h64h64v-64v-64v-64zM576 384h64v-64h-64h-64h-64h-64h-64h-64h-64h-64v64h64h64h64h64h64h64h64z" />
    <glyph glyph-name="h" unicode="h" 
d="M576 64h-64v64v64h-64h-64h-64h-64h-64h-64v-64v-64h-64h-64v64v64v64v64v64h64h64v-64v-64h64h64h64h64h64h64v64v64h64h64v-64v-64v-64v-64v-64h-64z" />
    <glyph glyph-name="i" unicode="i" horiz-adv-x="576" 
d="M448 128h64v-64h-64h-64h-64h-64h-64h-64v64h64h64v64v64v64h-64h-64v64h64h64h64h64h64h64v-64h-64h-64v-64v-64v-64h64z" />
    <glyph glyph-name="j" unicode="j" 
d="M320 128h64v-64h-64h-64h-64h-64v64h64h64h64zM384 128v64v64v64h-64h-64v64h64h64h64h64h64h64v-64h-64h-64v-64v-64v-64h-64h-64zM128 128h-64h-64v64h64h64v-64z" />
    <glyph glyph-name="k" unicode="k" 
d="M576 128h64v-64h-64h-64v64h64zM64 64h-64v64v64v64v64v64h64h64v-64v-64h64h64h64h64v-64h64h64v-64h-64h-64v64h-64h-64h-64h-64v-64v-64h-64zM448 320h64v-64h-64h-64v64h64zM576 384h64v-64h-64h-64v64h64z" />
    <glyph glyph-name="l" unicode="l" 
d="M576 128h64v-64h-64h-64h-64h-64h-64h-64h-64h-64h-64h-64v64v64v64v64v64h64h64v-64v-64v-64v-64h64h64h64h64h64h64h64z" />
    <glyph glyph-name="m" unicode="m" 
d="M576 64h-64v64v64v64h-64h-64v-64h-64h-64v64h64h64v64h64h64v64h64h64v-64v-64v-64v-64v-64h-64zM64 64h-64v64v64v64v64v64h64h64v-64h64h64v-64h-64h-64v-64v-64v-64h-64z" />
    <glyph glyph-name="n" unicode="n" 
d="M576 64h-64v64h-64h-64v64h64h64v64v64v64h64h64v-64v-64v-64v-64v-64h-64zM64 64h-64v64v64v64v64v64h64h64v-64h64h64v-64h64h64v-64h-64h-64v64h-64h-64v-64v-64v-64h-64z" />
    <glyph glyph-name="o" unicode="o" 
d="M448 128h64v-64h-64h-64h-64h-64h-64h-64v64h64h64h64h64h64zM512 128v64v64v64h64h64v-64v-64v-64h-64h-64zM128 128h-64h-64v64v64v64h64h64v-64v-64v-64zM512 320h-64h-64h-64h-64h-64h-64v64h64h64h64h64h64h64v-64z" />
    <glyph glyph-name="p" unicode="p" 
d="M64 64h-64v64v64v64v64v64h64h64h64h64h64h64h64h64v-64h64h64v-64h-64h-64v64h-64h-64h-64h-64h-64h-64v-64h64h64h64h64h64h64v-64h-64h-64h-64h-64h-64h-64v-64v-64h-64z" />
    <glyph glyph-name="q" unicode="q" 
d="M448 64h-64h-64h-64h-64h-64v64h64h64h64h64v64h64h64v64v64h64h64v-64v-64v-64h-64h-64v-64h-64zM128 128h-64h-64v64v64v64h64h64v-64v-64v-64zM512 320h-64h-64h-64h-64h-64h-64v64h64h64h64h64h64h64v-64z" />
    <glyph glyph-name="r" unicode="r" 
d="M576 128h64v-64h-64h-64h-64h-64v64h64h64h64zM64 64h-64v64v64v64v64v64h64h64h64h64h64h64h64h64v-64h64h64v-64h-64h-64v64h-64h-64h-64h-64h-64h-64v-64h64h64h64h64h64h64v-64h-64h-64v-64h-64h-64v64h-64h-64v-64v-64h-64z" />
    <glyph glyph-name="s" unicode="s" 
d="M448 128h64v-64h-64h-64h-64h-64h-64h-64h-64h-64v64h64h64h64h64h64h64h64zM576 192h64v-64h-64h-64v64h64zM512 192h-64h-64h-64h-64h-64h-64v64h64h64h64h64h64h64v-64zM128 256h-64h-64v64h64h64v-64zM576 384h64v-64h-64h-64h-64h-64h-64h-64h-64h-64v64h64h64h64
h64h64h64h64z" />
    <glyph glyph-name="t" unicode="t" 
d="M320 64h-64v64v64v64v64h-64h-64h-64h-64v64h64h64h64h64h64h64h64h64h64h64v-64h-64h-64h-64h-64v-64v-64v-64v-64h-64z" />
    <glyph glyph-name="u" unicode="u" 
d="M448 128h64v-64h-64h-64h-64h-64h-64h-64v64h64h64h64h64h64zM512 128v64v64v64v64h64h64v-64v-64v-64v-64h-64h-64zM128 128h-64h-64v64v64v64v64h64h64v-64v-64v-64v-64z" />
    <glyph glyph-name="v" unicode="v" 
d="M320 128h64v-64h-64h-64v64h64zM448 192h64v-64h-64h-64v64h64zM256 128h-64h-64v64h64h64v-64zM512 192v64v64v64h64h64v-64v-64v-64h-64h-64zM128 192h-64h-64v64v64v64h64h64v-64v-64v-64z" />
    <glyph glyph-name="w" unicode="w" 
d="M576 64h-64v64h-64h-64v64h64h64v64v64v64h64h64v-64v-64v-64v-64v-64h-64zM64 64h-64v64v64v64v64v64h64h64v-64v-64v-64h64h64v-64h-64h-64v-64h-64zM384 192h-64h-64v64h64h64v-64z" />
    <glyph glyph-name="x" unicode="x" 
d="M576 128h64v-64h-64h-64v64h64zM64 128h64v-64h-64h-64v64h64zM512 128h-64h-64v64h64h64v-64zM192 192h64v-64h-64h-64v64h64zM384 192h-64h-64v64h64h64v-64zM448 320h64v-64h-64h-64v64h64zM256 256h-64h-64v64h64h64v-64zM576 384h64v-64h-64h-64v64h64zM128 320h-64
h-64v64h64h64v-64z" />
    <glyph glyph-name="y" unicode="y" 
d="M320 64h-64v64v64v64h64h64v-64v-64v-64h-64zM448 320h64v-64h-64h-64v64h64zM256 256h-64h-64v64h64h64v-64zM576 384h64v-64h-64h-64v64h64zM128 320h-64h-64v64h64h64v-64z" />
    <glyph glyph-name="z" unicode="z" 
d="M576 128h64v-64h-64h-64h-64h-64h-64h-64h-64h-64h-64h-64v64h64h64v64h64h64v-64h64h64h64h64h64zM320 256h64v-64h-64h-64v64h64zM384 256v64h-64h-64h-64h-64h-64h-64v64h64h64h64h64h64h64h64h64h64h64v-64h-64h-64v-64h-64h-64z" />
    <glyph glyph-name="braceleft" unicode="{" 
d="M576 128h64v-64h-64h-64h-64h-64h-64h-64v64v64h64h64v-64h64h64h64zM256 192h-64h-64h-64h-64v64h64h64h64h64v-64zM256 256v64v64h64h64h64h64h64h64v-64h-64h-64h-64h-64v-64h-64h-64z" />
    <glyph glyph-name="bar" unicode="|" horiz-adv-x="448" 
d="M320 64h-64v64v64h64h64v-64v-64h-64zM320 256h-64v64v64h64h64v-64v-64h-64z" />
    <glyph glyph-name="braceright" unicode="}" 
d="M320 64h-64h-64h-64h-64h-64v64h64h64h64h64v64h64h64v-64v-64h-64zM576 256h64v-64h-64h-64h-64h-64v64h64h64h64zM384 256h-64h-64v64h-64h-64h-64h-64v64h64h64h64h64h64h64v-64v-64z" />
    <glyph glyph-name="asciitilde" unicode="~" 
d="M448 256h64v-64h-64h-64h-64h-64v64h64h64h64zM64 256h64v-64h-64h-64v64h64zM576 320h64v-64h-64h-64v64h64zM256 256h-64h-64v64h64h64v-64z" />
    <glyph glyph-name="uni00A0" unicode="&#xa0;" horiz-adv-x="320" 
 />
  </font>
</defs>
</svg>
